<?xml version="1.0" encoding="UTF-8"?>
<svg width="155px" height="42px" viewBox="0 0 155 42" version="1.1" xmlns="http://www.w3.org/2000/svg" xmlns:xlink="http://www.w3.org/1999/xlink">
    <title>Group 6</title>
    <defs>
        <linearGradient x1="50%" y1="0%" x2="50%" y2="100%" id="linearGradient-1">
            <stop stop-color="#F03232" offset="0%"></stop>
            <stop stop-color="#DB2727" offset="100%"></stop>
        </linearGradient>
        <linearGradient x1="50%" y1="0%" x2="50%" y2="100%" id="linearGradient-2">
            <stop stop-color="#F03232" offset="0%"></stop>
            <stop stop-color="#DB2727" offset="100%"></stop>
        </linearGradient>
    </defs>
    <g id="Symbols" stroke="none" stroke-width="1" fill="none" fill-rule="evenodd">
        <g id="logo" transform="translate(-66.000000, -12.000000)">
            <g id="Group-6" transform="translate(66.737624, 12.705882)">
                <path d="M5.48786878,0.542048538 C6.01505988,0.542048538 6.35593444,0.752652635 6.57310209,1.23466285 L10.7897235,11.2614153 C10.9140353,11.5325276 11.1620541,11.4720194 11.1620541,11.1709465 L11.1620541,1.44526695 C11.1620541,0.843121341 11.5029287,0.542048538 12.0921244,0.542048538 L15.5646896,0.542048538 C16.1850389,0.542048538 16.4950624,0.843121341 16.4950624,1.44526695 L16.4950624,20.7162762 C16.4950624,21.2881677 16.1850389,21.6194946 15.5646896,21.6194946 L11.0068911,21.6194946 C10.4797,21.6194946 10.1388255,21.4085968 9.92196029,20.9268803 L5.70473396,10.9001279 C5.58072458,10.6290155 5.33300828,10.6892301 5.33300828,10.9903029 L5.33300828,20.7162762 C5.33300828,21.2881677 5.02298483,21.6194946 4.40263547,21.6194946 L0.929767892,21.6194946 C0.340874565,21.6194946 0,21.2881677 0,20.7162762 L0,1.44526695 C0,0.843121341 0.340874565,0.542048538 0.929767892,0.542048538 L5.48786878,0.542048538 Z" id="Fill-1" fill="#F2F2F2"></path>
                <path d="M29.2412304,7.82880345 C29.2412304,6.38336026 29.0243653,5.66078553 26.977908,5.66078553 C24.9314508,5.66078553 24.7142831,6.38336026 24.7142831,7.82880345 L24.7142831,11.1109376 C24.7142831,11.6831228 25.0554602,12.0144497 25.6446559,12.0144497 L28.3111601,12.0144497 C28.931207,11.9841956 29.2412304,11.6831228 29.2412304,11.0809772 L29.2412304,7.82880345 Z M34.5742387,20.595759 C34.5742387,21.2584129 34.2642153,21.6197002 33.6441684,21.6197002 L30.1713008,21.6197002 C29.5824075,21.6197002 29.2412304,21.3186274 29.2412304,20.7164818 L29.2412304,18.0967078 C29.2412304,17.4942685 28.931207,17.1931957 28.3111601,17.1931957 L25.6446559,17.1931957 C25.0554602,17.1931957 24.7142831,17.4942685 24.7142831,18.0967078 L24.7142831,20.7164818 C24.7142831,21.3186274 24.4042597,21.6197002 23.7842128,21.6197002 L20.3113452,21.6197002 C19.7224519,21.6197002 19.3812748,21.2584129 19.3812748,20.595759 L19.3812748,7.82880345 C19.3812748,4.03469867 20.0013217,2.93729568e-05 26.977908,2.93729568e-05 C33.9541918,2.93729568e-05 34.5742387,4.03469867 34.5742387,7.82880345 L34.5742387,20.595759 Z" id="Fill-3" fill="#F2F2F2"></path>
                <path d="M54.6482421,20.5354563 C55.0822749,21.1378956 54.8031026,21.6196121 54.0593487,21.6196121 L49.408392,21.6196121 C48.9120521,21.6196121 48.5711775,21.4389684 48.2920052,21.0174665 L44.4474119,15.2964958 C44.3234025,15.1158521 44.1373885,15.1158521 44.0130766,15.2964958 L42.7418292,16.9825035 C42.6489734,17.1029326 42.6178199,17.2233617 42.6178199,17.3737512 L42.6178199,20.7163937 C42.6178199,21.2882851 42.3077964,21.6196121 41.6877495,21.6196121 L38.1528772,21.6196121 C37.5639839,21.6196121 37.2228069,21.2882851 37.2228069,20.7163937 L37.2228069,1.44538444 C37.2228069,0.843238833 37.5639839,0.54216603 38.1528772,0.54216603 L41.6877495,0.54216603 C42.3077964,0.54216603 42.6178199,0.843238833 42.6178199,1.44538444 L42.6178199,7.49738838 C42.6178199,7.79875491 42.8349875,7.85896947 42.989848,7.6178175 L47.8579723,1.11435122 C48.1371447,0.722809712 48.4780192,0.54216603 48.9740568,0.54216603 L53.5630088,0.54216603 C54.3382186,0.54216603 54.5862374,1.02388251 54.1522045,1.65598854 L47.8888234,10.0269874 C47.7959676,10.1773769 47.7648141,10.297806 47.8888234,10.4484893 L54.6482421,20.5354563 Z" id="Fill-5" fill="#F2F2F2"></path>
                <path d="M67.2823782,7.82880345 C67.2823782,6.38336026 67.0655131,5.66078553 65.0190558,5.66078553 C62.9725986,5.66078553 62.7554309,6.38336026 62.7554309,7.82880345 L62.7554309,11.1109376 C62.7554309,11.6831228 63.096608,12.0144497 63.6858037,12.0144497 L66.3523079,12.0144497 C66.9723548,11.9841956 67.2823782,11.6831228 67.2823782,11.0809772 L67.2823782,7.82880345 Z M72.6153865,20.595759 C72.6153865,21.2584129 72.3053631,21.6197002 71.6853162,21.6197002 L68.2124486,21.6197002 C67.6235553,21.6197002 67.2823782,21.3186274 67.2823782,20.7164818 L67.2823782,18.0967078 C67.2823782,17.4942685 66.9723548,17.1931957 66.3523079,17.1931957 L63.6858037,17.1931957 C63.096608,17.1931957 62.7554309,17.4942685 62.7554309,18.0967078 L62.7554309,20.7164818 C62.7554309,21.3186274 62.4454075,21.6197002 61.8253606,21.6197002 L58.352493,21.6197002 C57.7635997,21.6197002 57.4224226,21.2584129 57.4224226,20.595759 L57.4224226,7.82880345 C57.4224226,4.03469867 58.0424696,2.93729568e-05 65.0190558,2.93729568e-05 C71.9953396,2.93729568e-05 72.6153865,4.03469867 72.6153865,7.82880345 L72.6153865,20.595759 Z" id="Fill-7" fill="#F2F2F2"></path>
                <path d="M83.252518,0.542048538 C83.8108627,0.542048538 84.1208861,0.843121341 84.2448955,1.35509197 L86.4465157,10.1170449 C86.5085204,10.4181177 86.7565391,10.4181177 86.8185438,10.1170449 L89.0195591,1.35509197 C89.1435685,0.843121341 89.4538944,0.542048538 90.0119366,0.542048538 L96.4304807,0.542048538 C97.0505276,0.542048538 97.360551,0.843121341 97.360551,1.44526695 L97.360551,20.7162762 C97.360551,21.2881677 97.0505276,21.6194946 96.4304807,21.6194946 L92.9576131,21.6194946 C92.3684173,21.6194946 92.0272403,21.2881677 92.0272403,20.7162762 L92.0272403,8.85283283 C92.0272403,8.641935 91.7483704,8.61168085 91.6863657,8.82257868 L88.6786845,20.8367053 C88.5546752,21.3483822 88.2134981,21.6194946 87.6557584,21.6194946 L85.6093011,21.6194946 C85.0509565,21.6194946 84.7100819,21.3483822 84.5860725,20.8367053 L81.5783913,8.82257868 C81.5163867,8.61168085 81.2372143,8.641935 81.2372143,8.85283283 L81.2372143,20.7162762 C81.2372143,21.2881677 80.9271909,21.6194946 80.307144,21.6194946 L76.8345789,21.6194946 C76.2142295,21.6194946 75.904206,21.2881677 75.904206,20.7162762 L75.904206,1.44526695 C75.904206,0.843121341 76.2142295,0.542048538 76.8345789,0.542048538 L83.252518,0.542048538 Z" id="Fill-9" fill="#F2F2F2"></path>
                <path d="M124.849287,6.62427725 C124.849287,6.02213164 124.539263,5.72105884 123.919217,5.72105884 L119.578586,5.72105884 C118.98939,5.72105884 118.648213,5.38973189 118.648213,4.81784043 L118.648213,1.4455313 C118.648213,0.843091968 118.98939,0.542019165 119.578586,0.542019165 L135.453601,0.542019165 C136.073648,0.542019165 136.383672,0.843091968 136.383672,1.4455313 L136.383672,4.81784043 C136.383672,5.38973189 136.073648,5.72105884 135.453601,5.72105884 L131.112366,5.72105884 C130.523472,5.72105884 130.182295,6.02213164 130.182295,6.62427725 L130.182295,20.7165406 C130.182295,21.2881383 129.872272,21.6194652 129.252527,21.6194652 L125.77966,21.6194652 C125.190464,21.6194652 124.849287,21.2881383 124.849287,20.7165406 L124.849287,6.62427725 Z" id="Fill-11" fill="#F2F2F2"></path>
                <path d="M148.894373,8.9129299 C148.894373,6.59422872 148.73921,5.17903968 146.444734,5.17903968 C144.150258,5.17903968 143.995095,6.59422872 143.995095,8.9129299 L143.995095,13.2489657 C143.995095,15.5673732 144.150258,16.9825622 146.444734,16.9825622 C148.73921,16.9825622 148.894373,15.5673732 148.894373,13.2489657 L148.894373,8.9129299 Z M154.227079,14.8445047 C154.227079,16.8318789 153.793046,22.1616019 146.444734,22.1616019 C139.096422,22.1616019 138.662389,16.8318789 138.662389,14.8445047 L138.662389,7.31680344 C138.662389,5.32942921 139.096422,0 146.444734,0 C153.793046,0 154.227079,5.32942921 154.227079,7.31680344 L154.227079,14.8445047 Z" id="Fill-13" fill="#F2F2F2"></path>
                <path d="M110.470097,8.9129299 C110.470097,6.59422872 110.314934,5.17903968 108.020458,5.17903968 C105.725982,5.17903968 105.570819,6.59422872 105.570819,8.9129299 L105.570819,13.2489657 C105.570819,15.5673732 105.725982,16.9825622 108.020458,16.9825622 C110.314934,16.9825622 110.470097,15.5673732 110.470097,13.2489657 L110.470097,8.9129299 Z M115.802803,14.8445047 C115.802803,16.8318789 115.369072,22.1616019 108.020458,22.1616019 C100.672146,22.1616019 100.238113,16.8318789 100.238113,14.8445047 L100.238113,7.31680344 C100.238113,5.32942921 100.672146,0 108.020458,0 C115.369072,0 115.802803,5.32942921 115.802803,7.31680344 L115.802803,14.8445047 Z" id="Fill-15" fill="#F2F2F2"></path>
                <path d="M101.25381,41.2941176 C100.734786,41.2941176 100.313759,40.8852461 100.313759,40.3809124 L100.313759,25.6157147 C100.313759,25.111381 100.734786,24.7025095 101.25381,24.7025095 L153.322022,24.7025095 C153.841349,24.7025095 154.262376,25.111381 154.262376,25.6157147 L154.262376,31.9217947 C154.262376,32.204302 154.2243,32.4837816 154.2243,32.7600369 C154.2243,40.3809124 149.650499,41.2941176 144.611422,41.2941176 L101.25381,41.2941176 Z" id="Fill-17" fill="url(#linearGradient-1)"></path>
                <path d="M100.564564,24.9315003 L154.262376,24.9315003 L154.262376,35.8715862 C154.262376,38.8663676 151.834626,41.2941176 148.839845,41.2941176 L100.564564,41.2941176 L100.564564,41.2941176 L100.564564,24.9315003 Z" id="Rectangle" fill="url(#linearGradient-2)"></path>
                <path d="M112.898957,28.3744521 C115.581491,28.3744521 116.02853,30.086308 116.092349,31.054147 C116.105053,31.2773814 115.99042,31.4136719 115.760246,31.4633122 L114.316898,31.7737844 C114.061318,31.8234247 113.920975,31.7115137 113.895266,31.4512693 C113.84415,30.8555858 113.626982,30.5081037 112.898957,30.5081037 C111.953461,30.5081037 111.889641,31.0911569 111.889641,32.0463654 L111.889641,33.8331224 C111.889641,34.7883309 111.953461,35.3710904 112.898957,35.3710904 C113.84415,35.3710904 113.90797,34.7883309 113.90797,34.180017 L113.16724,34.180017 C112.924363,34.180017 112.784021,34.0434327 112.784021,33.8078616 L112.784021,32.8156431 C112.784021,32.5674417 112.924363,32.4434878 113.16724,32.4434878 L115.722136,32.4434878 C115.977414,32.4434878 116.105053,32.5674417 116.105053,32.8156431 L116.105053,34.4904891 C116.105053,35.3091134 115.9266,37.5050356 112.898957,37.5050356 C109.871313,37.5050356 109.692558,35.3091134 109.692558,34.4904891 L109.692558,31.3889987 C109.692558,30.5703744 109.871313,28.3744521 112.898957,28.3744521 Z M106.295245,34.9714419 C107.012988,34.9714419 107.594924,35.5365776 107.594924,36.2335979 C107.594924,36.9306181 107.012988,37.4957538 106.295245,37.4957538 C105.577806,37.4957538 104.995869,36.9306181 104.995869,36.2335979 C104.995869,35.5365776 105.577806,34.9714419 106.295245,34.9714419 Z M144.544517,28.3994485 C147.175936,28.3994485 147.789329,30.0616641 147.865851,30.954602 C147.878555,31.1781302 147.763619,31.3147144 147.533446,31.3643547 L146.077394,31.6742394 C145.821814,31.7238797 145.694175,31.6122625 145.656065,31.3643547 C145.566536,30.8556151 145.144904,30.5328063 144.544517,30.5328063 C144.046362,30.5328063 143.739666,30.8186052 143.790782,31.1038166 C143.969537,32.0713618 148.006194,32.0463948 148.006194,34.8996838 C148.006194,35.2718391 147.572161,37.4677614 144.544517,37.4677614 C141.861983,37.4677614 141.287305,35.7559055 141.223183,34.7880665 C141.21048,34.5648321 141.325415,34.4282478 141.555286,34.3786075 L142.998937,34.0687228 C143.254215,34.0187888 143.39486,34.1304061 143.420569,34.3909442 C143.471382,34.9866277 143.94413,35.3341098 144.544517,35.3341098 C145.170311,35.3341098 145.630355,34.9739974 145.55353,34.6391457 C145.310956,33.5846565 141.465758,33.8205214 141.465758,30.9672324 C141.453054,30.595077 141.682925,28.3994485 144.544517,28.3994485 Z M120.295935,28.3744521 C123.17023,28.3744521 123.425508,30.0366677 123.425508,31.5998965 L123.425508,36.8597118 C123.425508,37.1328803 123.297869,37.2815074 123.042289,37.2815074 L121.611946,37.2815074 C121.36907,37.2815074 121.228425,37.1575536 121.228425,36.9093521 L121.228425,35.8301897 C121.228425,35.5819882 121.100786,35.4580343 120.845206,35.4580343 L119.746664,35.4580343 C119.504089,35.4580343 119.363445,35.5819882 119.363445,35.8301897 L119.363445,36.9093521 C119.363445,37.1575536 119.235806,37.2815074 118.980225,37.2815074 L117.549581,37.2815074 C117.307006,37.2815074 117.166361,37.1328803 117.166361,36.8597118 L117.166361,31.5998965 C117.166361,30.0366677 117.421639,28.3744521 120.295935,28.3744521 Z M127.667627,28.5978628 C127.897498,28.5978628 128.025137,28.7218167 128.076253,28.9327145 L128.983336,32.5426509 C129.008743,32.6666048 129.110975,32.6666048 129.136382,32.5426509 L130.043465,28.9327145 C130.094581,28.7218167 130.222523,28.5978628 130.452394,28.5978628 L133.096516,28.5978628 C133.352096,28.5978628 133.479735,28.7218167 133.479735,28.9700182 L133.479735,36.9095283 C133.479735,37.1450994 133.352096,37.28139 133.096516,37.28139 L131.665871,37.28139 C131.422994,37.28139 131.282652,37.1450994 131.282652,36.9095283 L131.282652,32.0215746 C131.282652,31.9349244 131.167716,31.9222941 131.142007,32.009238 L129.903123,36.9591686 C129.852007,37.1700664 129.711362,37.28139 129.481491,37.28139 L128.638227,37.28139 C128.408356,37.28139 128.268014,37.1700664 128.216898,36.9591686 L126.977711,32.009238 C126.952305,31.9222941 126.837067,31.9349244 126.837067,32.0215746 L126.837067,36.9095283 C126.837067,37.1450994 126.709428,37.28139 126.453847,37.28139 L125.023505,37.28139 C124.767622,37.28139 124.639983,37.1450994 124.639983,36.9095283 L124.639983,28.9700182 C124.639983,28.7218167 124.767622,28.5978628 125.023505,28.5978628 L127.667627,28.5978628 Z M140.506923,28.5978628 C140.762503,28.5978628 140.890142,28.7218167 140.890142,28.9700182 L140.890142,30.359359 C140.890142,30.5949302 140.762503,30.7315144 140.506923,30.7315144 L137.415762,30.7315144 C137.172885,30.7315144 137.032543,30.855762 137.032543,31.1036698 L137.032543,31.5004984 C137.032543,31.7363632 137.172885,31.8726538 137.415762,31.8726538 L139.395678,31.8726538 C139.650956,31.8726538 139.778897,31.9966076 139.778897,32.2451028 L139.778897,33.63415 C139.778897,33.8703085 139.650956,34.0063053 139.395678,34.0063053 L137.415762,34.0063053 C137.172885,34.0063053 137.032543,34.1305529 137.032543,34.3784607 L137.032543,34.775583 C137.032543,35.0111542 137.172885,35.1477384 137.415762,35.1477384 L140.506923,35.1477384 C140.762503,35.1477384 140.890142,35.2716923 140.890142,35.5198938 L140.890142,36.9095283 C140.890142,37.1574361 140.762503,37.28139 140.506923,37.28139 L135.141854,37.28139 C134.899279,37.28139 134.758635,37.1450994 134.758635,36.9095283 L134.758635,28.9700182 C134.758635,28.7218167 134.899279,28.5978628 135.141854,28.5978628 L140.506923,28.5978628 Z M120.295935,30.7066649 C119.452973,30.7066649 119.363445,31.0042129 119.363445,31.5998965 L119.363445,32.9522274 C119.363445,33.1877985 119.504089,33.3243828 119.746664,33.3243828 L120.845206,33.3243828 C121.100786,33.3117524 121.228425,33.1877985 121.228425,32.939597 L121.228425,31.5998965 C121.228425,31.0042129 121.139198,30.7066649 120.295935,30.7066649 Z" id="Combined-Shape" fill="#F9F9F9"></path>
            </g>
        </g>
    </g>
</svg>