<?xml version="1.0" encoding="UTF-8"?>
<svg width="53px" height="51px" viewBox="0 0 53 51" version="1.1" xmlns="http://www.w3.org/2000/svg" xmlns:xlink="http://www.w3.org/1999/xlink">
    <title>Group 5</title>
    <defs>
        <linearGradient x1="50%" y1="0%" x2="50%" y2="100%" id="linearGradient-1">
            <stop stop-color="#E65D5D" offset="0%"></stop>
            <stop stop-color="#ED3030" offset="100%"></stop>
        </linearGradient>
        <polygon id="path-2" points="0 0 27.0241852 0 27.0241852 50.6833517 0 50.6833517"></polygon>
    </defs>
    <g id="Symbols" stroke="none" stroke-width="1" fill="none" fill-rule="evenodd">
        <g id="Group-5">
            <g id="Group-33" transform="translate(0.000000, 0.140148)" fill="url(#linearGradient-1)">
                <path d="M26.1562765,50.6833812 C11.7106634,50.6833812 0,39.3375868 0,25.3416906 C0,11.3457944 11.7106634,0 26.1562765,0 C40.6018897,0 52.3122479,11.3457944 52.3122479,25.3416906 C52.3122479,39.3375868 40.6018897,50.6833812 26.1562765,50.6833812 Z" id="Fill-31"></path>
            </g>
            <g id="Group-36" transform="translate(25.490666, 0.000000)">
                <mask id="mask-3" fill="white">
                    <use xlink:href="#path-2"></use>
                </mask>
                <g id="Clip-35"></g>
                <path d="M25.2880627,25.341661 C25.2880627,39.0560782 14.0437019,50.2241741 0,50.6679767 C0.288387368,50.6771426 0.57738508,50.6833517 0.867908651,50.6833517 C15.3135218,50.6833517 27.0241852,39.3375572 27.0241852,25.341661 C27.0241852,11.3457649 15.3135218,-2.95671288e-05 0.867908651,-2.95671288e-05 C0.57738508,-2.95671288e-05 0.288387368,0.00617952996 0,0.01534534 C14.0437019,0.459147947 25.2880627,11.6272439 25.2880627,25.341661" id="Fill-34" fill="#7F0404" mask="url(#mask-3)"></path>
            </g>
            <path d="M36.4004978,26.5131698 C35.6818181,29.6662085 32.5577742,29.1502621 32.5577742,29.1502621 C29.1850153,28.7490361 29.4892716,24.82193 29.4892716,24.82193 L36.4557339,24.82193 L36.4004978,26.5131698 Z M20.3963721,29.1502621 C20.3963721,29.1502621 17.2723282,29.6662085 16.5536486,26.5131698 L16.4984125,24.82193 L23.4648747,24.82193 C23.4648747,24.82193 23.769131,28.7490361 20.3963721,29.1502621 L20.3963721,29.1502621 Z M16.3601696,19.3469848 C16.3601696,19.3469848 14.8394985,19.4040493 14.8394985,18.085651 L14.8394985,16.6235565 L11.190559,16.6235565 L11.190559,21.3820903 L6.57361459,21.3820903 L6.57361459,24.6785295 L11.1350178,24.6785295 L11.1350178,26.2837289 L6.62885068,26.2837289 L6.62885068,29.637824 L11.6879891,29.6091439 C11.6879891,29.6091439 13.0704174,35.8007964 19.6499218,35.8007964 C19.6499218,35.8007964 24.3858833,36.1893085 26.4769206,31.958548 C28.568263,36.1893085 33.3042245,35.8007964 33.3042245,35.8007964 C39.8837289,35.8007964 41.2661572,29.6091439 41.2661572,29.6091439 L46.3252956,29.637824 L46.3252956,26.2837289 L41.8191286,26.2837289 L41.8191286,24.6785295 L46.3805317,24.6785295 L46.3805317,21.3820903 L41.7635873,21.3820903 L41.7635873,16.6235565 L38.1146479,16.6235565 L38.1146479,18.085651 C38.1146479,19.4040493 36.5939767,19.3469848 36.5939767,19.3469848 L16.3601696,19.3469848 Z" id="Fill-37" fill="#7F0404"></path>
            <polygon id="Fill-39" fill="#7F0404" points="41.7637094 16.6236156 40.7697647 15.0204859 40.2045865 17.0993508"></polygon>
            <polygon id="Fill-41" fill="#7F0404" points="46.3838886 21.3951589 45.389944 19.7920292 44.8247658 21.870894"></polygon>
            <polygon id="Fill-43" fill="#7F0404" points="46.328683 26.2812453 45.3347384 24.6781155 44.7695602 26.7569804"></polygon>
            <polygon id="Fill-45" fill="#7F0404" points="5.57966997 23.0753406 6.57361459 24.6784703 7.66094177 23.5504844 6.74054357 22.3290663"></polygon>
            <polygon id="Fill-47" fill="#7F0404" points="5.63490607 28.0377397 6.62885068 29.6408694 7.71617787 28.5128835 6.79577967 27.2914654"></polygon>
            <path d="M35.6734259,25.3536653 C34.9547463,28.5067039 31.8307024,27.9907575 31.8307024,27.9907575 C28.4579434,27.5895316 28.7621997,23.6624255 28.7621997,23.6624255 L35.728662,23.6624255 L35.6734259,25.3536653 Z M19.6693002,27.9907575 C19.6693002,27.9907575 16.5452563,28.5067039 15.8265767,25.3536653 L15.7713406,23.6624255 L22.7378029,23.6624255 C22.7378029,23.6624255 23.0420592,27.5895316 19.6693002,27.9907575 L19.6693002,27.9907575 Z M15.6330978,18.1874802 C15.6330978,18.1874802 14.1124266,18.2445448 14.1124266,16.9261465 L14.1124266,15.464052 L10.4634872,15.464052 L10.4634872,20.2225857 L5.84654273,20.2225857 L5.84654273,23.5190249 L10.4079459,23.5190249 L10.4079459,25.1242244 L5.90177883,25.1242244 L5.90177883,28.4783195 L10.9609172,28.4496394 C10.9609172,28.4496394 12.3433456,34.6412919 18.92285,34.6412919 C18.92285,34.6412919 23.6588114,35.0298039 25.7498487,30.7990434 C27.8411912,35.0298039 32.5771526,34.6412919 32.5771526,34.6412919 C39.156657,34.6412919 40.5390854,28.4496394 40.5390854,28.4496394 L45.5982238,28.4783195 L45.5982238,25.1242244 L41.0920567,25.1242244 L41.0920567,23.5190249 L45.6534599,23.5190249 L45.6534599,20.2225857 L41.0365154,20.2225857 L41.0365154,15.464052 L37.387576,15.464052 L37.387576,16.9261465 C37.387576,18.2445448 35.8669048,18.1874802 35.8669048,18.1874802 L15.6330978,18.1874802 Z" id="Fill-49" fill="#CCCCCC"></path>
            <polygon id="Fill-51" fill="#CCCCCC" points="45.6533378 20.2287357 45.3863125 19.7849331 45.1238647 20.4442801"></polygon>
            <polygon id="Fill-53" fill="#CCCCCC" points="41.0331585 15.4571924 40.7661332 15.0133898 40.5036854 15.6727368"></polygon>
            <polygon id="Fill-55" fill="#CCCCCC" points="45.5981322 25.1243426 45.3311069 24.68054 45.0686591 25.339887"></polygon>
            <polygon id="Fill-57" fill="#CCCCCC" points="5.57966997 23.0753406 5.84669531 23.5191432 6.09632586 22.9777691"></polygon>
            <polygon id="Fill-59" fill="#CCCCCC" points="5.63490607 28.0186393 5.90193141 28.4624419 6.15156196 27.9210678"></polygon>
            <polygon id="Fill-61" fill="#CCCCCC" points="14.1125487 15.4641407 13.8455233 15.0203381 13.7719769 15.8204246"></polygon>
            <path d="M35.4065226,24.9099218 C34.687843,28.0629605 31.5637991,27.5470141 31.5637991,27.5470141 C28.1910402,27.1457881 28.4952965,23.218682 28.4952965,23.218682 L35.4617587,23.218682 L35.4065226,24.9099218 Z M19.402397,27.5470141 C19.402397,27.5470141 16.2783531,28.0629605 15.5596734,24.9099218 L15.5044373,23.218682 L22.4708996,23.218682 C22.4708996,23.218682 22.7751559,27.1457881 19.402397,27.5470141 L19.402397,27.5470141 Z M15.3661945,17.7437368 C15.3661945,17.7437368 13.8455233,17.8008013 13.8455233,16.482403 L13.8455233,15.0203085 L10.1965839,15.0203085 L10.1965839,19.7788423 L5.57963946,19.7788423 L5.57963946,23.0752815 L10.1410426,23.0752815 L10.1410426,24.6804809 L5.63487556,24.6804809 L5.63487556,28.034576 L10.694014,28.0058959 C10.694014,28.0058959 12.0764423,34.1975484 18.6559467,34.1975484 C18.6559467,34.1975484 23.3919081,34.5860605 25.4829454,30.3553 C27.5742879,34.5860605 32.3102494,34.1975484 32.3102494,34.1975484 C38.8897538,34.1975484 40.2721821,28.0058959 40.2721821,28.0058959 L45.3313205,28.034576 L45.3313205,24.6804809 L40.8251534,24.6804809 L40.8251534,23.0752815 L45.3865566,23.0752815 L45.3865566,19.7788423 L40.7696122,19.7788423 L40.7696122,15.0203085 L37.1206727,15.0203085 L37.1206727,16.482403 C37.1206727,17.8008013 35.6000016,17.7437368 35.6000016,17.7437368 L15.3661945,17.7437368 Z" id="Fill-63" fill="#F2F2F2"></path>
            <polygon id="Fill-65" fill="#7F0404" points="14.8396205 16.6236156 14.1123961 15.4639928 14.1123961 16.9260874"></polygon>
        </g>
    </g>
</svg>